
nColumns=19
nRows=39
DataType=double
version=3
OpenSimVersion=4.4-2022-10-11-798caa840
endheader
time	ground_force_calcn_r_vx	ground_force_calcn_r_vy	ground_force_calcn_r_vz	ground_force_calcn_r_px	ground_force_calcn_r_py	ground_force_calcn_r_pz	ground_force_calcn_r_mx	ground_force_calcn_r_my	ground_force_calcn_r_mz	ground_force_calcn_l_vx	ground_force_calcn_l_vy	ground_force_calcn_l_vz	ground_force_calcn_l_px	ground_force_calcn_l_py	ground_force_calcn_l_pz	ground_force_calcn_l_mx	ground_force_calcn_l_my	ground_force_calcn_l_mz
0	-132.527	647.595	15.3574	0.0622645	0	-0.211426	-0.207576	1.01432	0.0240543	0	0	0	0	0	0	0	0	0
0.01	-136.311	666.833	11.4216	0.0654112	0	-0.210368	-0.239231	1.17031	0.0200452	0	0	0	0	0	0	0	0	0
0.02	-139.71	685.595	6.6871	0.0694405	0	-0.208973	-0.271793	1.33376	0.0130091	0	0	0	0	0	0	0	0	0
0.03	-142.474	702.9400000000001	1.25649	0.073786	0	-0.207435	-0.305078	1.5052	0.0026905	0	0	0	0	0	0	0	0	0
0.04	-144.448	718.259	-4.63028	0.07842059999999999	0	-0.205781	-0.339727	1.68927	-0.0108899	0	0	0	0	0	0	0	0	0
0.05	-145.598	731.353	-10.6208	0.08332580000000001	0	-0.204046	-0.376698	1.89219	-0.0274787	0	0	0	0	0	0	0	0	0
0.06	-145.98	742.343	-16.322	0.0884813	0	-0.202271	-0.416178	2.11636	-0.0465327	0	0	0	0	0	0	0	0	0
0.07000000000000001	-145.702	751.496	-21.3816	0.09386129999999999	0	-0.20049	-0.456924	2.3567	-0.0670528	0	0	0	0	0	0	0	0	0
0.08	-144.872	759.057	-25.5452	0.09942620000000001	0	-0.198734	-0.49646	2.60121	-0.0875406	0	0	0	0	0	0	0	0	0
0.09	-143.576	765.144	-28.6931	0.105126	0	-0.197022	-0.531708	2.83357	-0.10626	0	0	0	0	0	0	0	0	0
0.1	-141.885	769.739	-30.8523	0.110906	0	-0.195366	-0.559563	3.03569	-0.121675	0	0	0	0	0	0	0	0	0
0.11	-139.85	772.742	-32.1749	0.116718	0	-0.193763	-0.57743	3.19061	-0.132848	0	0	0	0	0	0	0	0	0
0.12	-137.507	774.039	-32.8835	0.122514	0	-0.192211	-0.583716	3.28578	-0.13959	0	0	0	0	0	0	0	0	0
0.13	-134.886	773.559	-33.2034	0.128258	0	-0.190706	-0.577966	3.3146	-0.142272	0	0	0	0	0	0	0	0	0
0.14	-132.013	771.3	-33.3102	0.133916	0	-0.189254	-0.560547	3.27507	-0.141441	0	0	0	0	0	0	0	0	0
0.15	-128.916	767.342	-33.3037	0.139458	0	-0.18787	-0.532249	3.16809	-0.1375	0	0	0	0	0	0	0	0	0
0.16	-125.62	761.853	-33.2069	0.144855	0	-0.186579	-0.494049	2.99628	-0.130599	0	0	0	0	0	0	0	0	0
0.17	-122.148	755.0839999999999	-32.9833	0.150075	0	-0.185419	-0.44709	2.76379	-0.120727	0	0	0	0	0	0	0	0	0
0.18	-118.524	747.359	-32.5657	0.155083	0	-0.184431	-0.392751	2.47651	-0.107912	0	0	0	0	0	0	0	0	0
0.19	-114.77	739.038	-31.8883	0.159836	0	-0.183657	-0.332652	2.14204	-0.0924258	0	0	0	0	0	0	0	0	0
0.2	-110.903	730.481	-30.9134	0.16429	0	-0.183131	-0.268596	1.76915	-0.0748692	0	0	0	0	0	0	0	0	0
0.21	-106.934	722.016	-29.6402	0.168397	0	-0.182885	-0.202467	1.36705	-0.0561201	0	0	0	0	0	0	0	0	0
0.22	-102.871	713.926	-28.1008	0.172111	0	-0.182931	-0.136108	0.944593	-0.0371801	0	0	0	0	0	0	0	0	0
0.23	-98.72	706.446	-26.3446	0.175388	0	-0.183275	-0.071254	0.509898	-0.019015	0	0	0	0	0	0	0	0	0
0.24	-94.48350000000001	699.784	-24.4219	0.178189	0	-0.18391	-0.00949638	0.0703342	-0.0024546	0	0	0	0	0	0	0	0	0
0.25	-90.1561	694.126	-22.38	0.180485	0	-0.184818	0.0477188	-0.367394	0.0118455	0	0	0	0	0	0	0	0	0
0.26	-85.73050000000001	689.639	-20.2651	0.182256	0	-0.185968	0.0990974	-0.797166	0.0234248	0	0	0	0	0	0	0	0	0
0.27	-81.2043	686.457	-18.1245	0.183503	0	-0.18732	0.143558	-1.21356	0.0320417	0	0	0	0	0	0	0	0	0
0.28	-76.5849	684.673	-16.0065	0.184249	0	-0.188822	0.180327	-1.61214	0.037689	0	0	0	0	0	0	0	0	0
0.29	-71.8908	684.323	-13.958	0.184544	0	-0.190418	0.209002	-1.98947	0.040579	0	0	0	0	0	0	0	0	0
0.3	-67.1528	685.381	-12.0236	0.184462	0	-0.192049	0.229561	-2.34296	0.0411024	0	0	0	0	0	0	0	0	0
0.31	-62.415	687.758	-10.2457	0.1841	0	-0.193657	0.242322	-2.67018	0.0397784	0	0	0	0	0	0	0	0	0
0.32	-57.732	691.293	-8.663040000000001	0.183571	0	-0.195191	0.247915	-2.96859	0.0372013	0	0	0	0	0	0	0	0	0
0.33	-53.1634	695.75	-7.30414	0.182989	0	-0.196605	0.247244	-3.23569	0.0339689	0	0	0	0	0	0	0	0	0
0.34	-48.7676	700.8339999999999	-6.18252	0.182466	0	-0.197867	0.241429	-3.46954	0.0306071	0	0	0	0	0	0	0	0	0
0.35	-44.5934	706.218	-5.29791	0.182096	0	-0.198955	0.231694	-3.6693	0.0275263	0	0	0	0	0	0	0	0	0
0.36	-40.6698	711.576	-4.64358	0.18195	0	-0.199859	0.219221	-3.83557	0.02503	0	0	0	0	0	0	0	0	0
0.37	-36.9984	716.617	-4.21293	0.182073	0	-0.200575	0.204997	-3.97055	0.0233425	0	0	0	0	0	0	0	0	0
0.38	-33.5552	721.124	-4.0016	0.182487	0	-0.201108	0.189735	-4.07754	0.0226268	0	0	0	0	0	0	0	0	0
